<?xml version="1.0" encoding="UTF-8"?> <svg xmlns="http://www.w3.org/2000/svg" width="44" height="44" viewBox="0 0 44 44" fill="none"><rect width="44" height="44" fill="black"></rect><path d="M19.9365 12.9732C18.9707 13.4451 18.1695 13.8622 18.1695 13.9061C18.1585 14.0268 20.7817 15.311 21.0231 15.311C21.1439 15.311 21.4073 15.2341 21.6158 15.1573C21.9561 15.0146 22.0439 15.0146 22.3841 15.1573C22.5926 15.2341 22.878 15.311 23.0097 15.311C23.2951 15.311 25.6658 14.1915 25.7756 14.0049C25.8744 13.8512 22.439 12.128 22.0219 12.128C21.8463 12.128 20.9134 12.5122 19.9365 12.9732Z" fill="white"></path><path d="M14.4378 15.6951L13 16.3976V19.4049C13 22.522 13.0439 23.1037 13.2744 23.1037C13.3512 23.1037 14.0098 22.8074 14.7451 22.4452L16.0732 21.7976V19.9208C16.0732 18.461 16.1061 18.0549 16.2159 18.0549C16.2927 18.0549 17.1488 18.4281 18.1146 18.8781C19.0695 19.3281 19.9586 19.7013 20.0793 19.7013C20.3207 19.7013 22.7025 18.5817 22.8012 18.4171C22.8671 18.3183 16.3037 14.9817 16.0293 14.9817C15.9524 14.9817 15.2281 15.3 14.4378 15.6951Z" fill="white"></path><path d="M26.5332 15.6731C25.7869 16.0462 25.1832 16.3755 25.1832 16.4084C25.1832 16.4414 25.8088 16.7816 26.5881 17.1657L27.982 17.8682L24.8539 19.4048C23.1308 20.2609 19.7722 21.9072 17.3905 23.0706L13.0551 25.1999L13.0222 25.8804C13.0003 26.2536 13.0112 26.9231 13.0551 27.3621L13.132 28.1524L13.6259 28.4487C13.9003 28.6024 14.5698 28.9316 15.1295 29.1731L16.1283 29.6011L17.5222 28.9097C18.3015 28.5255 18.9271 28.1853 18.9271 28.1524C18.9271 28.1194 18.2905 27.7682 17.5003 27.3841L16.0734 26.6706L23.4271 23.0597C29.9247 19.8767 30.7918 19.4157 30.8576 19.1633C30.9015 19.0096 30.9344 18.3072 30.9344 17.6157L30.9454 16.3535L29.5735 15.6621C28.8271 15.2889 28.1357 14.9816 28.0369 14.9926C27.9491 14.9926 27.2686 15.2999 26.5332 15.6731Z" fill="white"></path><path d="M29.4417 22.0718L28.0368 22.7743V24.695C28.0368 25.7487 28.0149 26.6158 27.9819 26.6158C27.949 26.6158 27.06 26.1877 26.0063 25.6609L24.0856 24.695L22.6588 25.4084C21.8795 25.7926 21.2319 26.1438 21.2319 26.1767C21.2319 26.2645 23.8441 27.6036 26.0393 28.6462L28.0588 29.5901L29.5295 28.8767L31.0002 28.1633L30.9893 25.0023C30.9783 23.2682 30.9454 21.7316 30.9124 21.6109C30.8356 21.3804 30.7807 21.4023 29.4417 22.0718Z" fill="white"></path><path d="M19.5631 29.8646C18.7838 30.2488 18.1582 30.6 18.1582 30.6329C18.1582 30.7207 21.7033 32.4329 21.9119 32.4329C22.1424 32.4329 23.5033 31.8512 24.8424 31.1707C25.6216 30.7866 25.8411 30.6329 25.7204 30.5561C25.6326 30.4902 25.0289 30.1719 24.3704 29.8427C23.4046 29.3488 23.1082 29.239 22.8338 29.3049C21.9558 29.4805 21.7911 29.4805 21.4728 29.3158C21.2863 29.2171 21.0887 29.1402 21.0448 29.1512C21.0009 29.1512 20.3314 29.4695 19.5631 29.8646Z" fill="white"></path></svg> 