<?xml version="1.0" encoding="UTF-8"?> <svg xmlns="http://www.w3.org/2000/svg" width="44" height="44" viewBox="0 0 44 44" fill="none"><rect width="44" height="44" fill="black"></rect><path d="M20.0164 11.1393C19.2492 11.3475 18.2628 11.8627 17.2216 12.5751L16.3558 13.1669L16.0051 12.9915C15.8078 12.8929 15.5338 12.7175 15.3913 12.6079C14.9639 12.2682 14.9091 12.3668 15.2159 12.9258C15.8735 14.1424 17.6162 15.8412 19.3808 17.0248C20.4439 17.7263 20.4768 17.7372 21.6385 17.4413C22.066 17.3427 22.2194 17.3536 22.5592 17.4852C22.7893 17.5838 23.0962 17.6605 23.2606 17.6605C23.8525 17.6605 26.1541 16.0165 27.272 14.789C27.9296 14.0656 28.9708 12.6079 28.9708 12.3997C28.9708 12.2243 28.8064 12.2682 28.5762 12.5203C28.3022 12.8162 27.8419 13.0573 27.535 13.0573C27.3925 13.0573 27.0089 12.8381 26.6801 12.5751C26.0006 12.049 25.1677 11.5996 24.258 11.2818C23.436 10.9859 20.8494 10.8982 20.0164 11.1393Z" fill="white"></path><path d="M15.183 15.4904C14.7556 16.3782 14.624 17.1892 14.5035 19.7319C14.3062 24.1159 14.1199 25.3654 13.3856 27.3382C13.1444 27.9958 12.98 28.5548 13.002 28.5876C13.0348 28.6205 13.5171 28.2917 14.076 27.8643C14.624 27.4259 15.1392 27.0971 15.2049 27.119C15.2707 27.1409 15.6762 27.7218 16.1146 28.4013C16.542 29.0918 16.9476 29.6727 17.0133 29.6946C17.0681 29.7165 17.5175 29.3768 17.9997 28.9603L18.8765 28.1821L19.0738 28.4452C19.1944 28.5876 19.7862 29.5083 20.4109 30.4947C21.6713 32.5113 21.9015 32.8292 22.0549 32.7415C22.1097 32.7086 22.7673 31.7003 23.5126 30.5166C24.247 29.3329 24.8936 28.3136 24.9265 28.2588C24.9703 28.204 25.3868 28.5109 25.88 28.9384C26.3622 29.3658 26.8006 29.7165 26.8664 29.7165C26.9322 29.7165 27.3596 29.1247 27.8199 28.4013C28.2802 27.678 28.7077 27.0861 28.7625 27.0861C28.8282 27.0861 29.3434 27.4588 29.9133 27.9191C30.4832 28.3794 30.9655 28.7411 30.9983 28.7192C31.0203 28.6972 30.823 28.0944 30.5599 27.393C29.7818 25.3325 29.7379 25.0147 29.4091 19.1401C29.2995 17.0467 29.2228 16.6631 28.7844 15.6548L28.4994 15.0191L28.2254 15.2712C28.083 15.4137 27.809 15.7096 27.6336 15.9398L27.2938 16.3672L27.4911 17.1563C27.6774 17.9016 27.6774 17.9674 27.5021 18.5154C27.2719 19.1949 26.5376 19.9073 25.8581 20.0827C25.1238 20.269 24.8607 20.4443 24.8278 20.7403C24.784 21.1348 25.058 21.4307 26.1102 22.0774C26.6253 22.3952 27.0527 22.7021 27.0746 22.7569C27.0966 22.8227 26.702 23.1186 26.2088 23.4145C24.4442 24.4776 23.9949 25.201 22.7673 28.9384C22.3509 30.1768 22.0111 31.218 21.9892 31.24C21.9125 31.3386 21.8357 31.1304 21.5289 30.0344C21.1014 28.5109 20.1917 26.1326 19.7095 25.2777C19.2711 24.4776 18.8656 24.094 17.8025 23.4693C17.386 23.2172 16.9805 22.9542 16.9256 22.8775C16.827 22.7679 17.0572 22.5706 17.8682 22.0335L18.9423 21.3321V20.8499V20.3567L18.3176 20.1703C17.4517 19.9183 16.9585 19.5785 16.6516 19.0524C16.29 18.4167 16.2352 17.9345 16.4215 17.1673C16.564 16.5316 16.564 16.4987 16.3119 16.0713C16.1694 15.8302 15.9064 15.4904 15.731 15.326L15.4022 15.0191L15.183 15.4904Z" fill="white"></path><path d="M17.5723 17.7701C17.5723 18.2304 17.8243 18.6908 18.1751 18.8442C18.6135 19.0415 19.6547 19.0196 19.6547 18.8113C19.6547 18.6469 17.923 17.4413 17.6928 17.4413C17.6271 17.4413 17.5723 17.5948 17.5723 17.7701Z" fill="white"></path><path d="M25.5626 17.7482C25.3434 17.9126 24.9378 18.1757 24.6529 18.3401C23.9186 18.7785 23.9734 18.9758 24.8392 18.9758C25.9023 18.9758 26.5819 18.4278 26.4065 17.7263C26.3188 17.3646 26.0777 17.3756 25.5626 17.7482Z" fill="white"></path><path d="M21.4305 18.7126C20.7509 19.0633 20.3783 19.8086 20.2139 21.1786C20.1262 21.8252 20.0385 22.1321 19.918 22.2088C19.8193 22.2636 19.6111 22.417 19.4686 22.5376L19.2056 22.7568L19.896 23.4802C20.6633 24.2803 21.1236 25.0584 21.5839 26.3517C21.9346 27.36 21.9785 27.3491 22.5045 26.0229C22.9649 24.8283 23.4909 23.9843 24.1705 23.2939L24.7185 22.7239L24.2362 22.3951L23.743 22.0554L23.6773 21.1457C23.5348 19.2825 22.5045 18.1755 21.4305 18.7126Z" fill="white"></path></svg> 