<?xml version="1.0" encoding="UTF-8"?> <svg xmlns="http://www.w3.org/2000/svg" width="44" height="44" viewBox="0 0 44 44" fill="none"><rect width="44" height="44" fill="black"></rect><path d="M12.7991 21.8845L17.2266 23.388L27.7392 16.9613C27.8918 16.8685 28.0479 17.0754 27.9166 17.1964L19.9581 24.5217L19.6624 28.6227C19.6576 28.6914 19.6738 28.7599 19.7088 28.8192C19.7438 28.8785 19.796 28.9257 19.8585 28.9547C19.921 28.9836 19.9908 28.9929 20.0587 28.9812C20.1266 28.9695 20.1893 28.9375 20.2386 28.8894L22.6888 26.4797L27.1686 29.8705C27.6512 30.2362 28.3504 29.9784 28.4803 29.3872L31.5995 15.2247C31.7776 14.4168 30.9856 13.7348 30.2135 14.0305L12.7771 20.7075C12.2299 20.9172 12.245 21.6961 12.7991 21.8845Z" fill="white"></path></svg> 