<?xml version="1.0" encoding="UTF-8"?> <svg xmlns="http://www.w3.org/2000/svg" width="311" height="80" viewBox="0 0 311 80" fill="none"><rect x="2.99927" y="2.86865" width="305" height="74" fill="#FF3131" stroke="black" stroke-width="5"></rect><path d="M46.7221 47.4887C46.7221 48.0927 46.5711 48.5835 46.2691 48.961C45.967 49.3196 45.5612 49.6311 45.0516 49.8953C44.372 50.2351 43.6076 50.5466 42.7581 50.8297C41.9087 51.094 41.031 51.3299 40.125 51.5375C39.2378 51.7452 38.3506 51.9056 37.4635 52.0189C36.5763 52.1321 35.7552 52.1888 35.0002 52.1888C33.6411 52.1888 32.4708 51.9906 31.4892 51.5942C30.5077 51.1789 29.6866 50.6032 29.0259 49.867C28.3842 49.1309 27.9028 48.2437 27.5819 47.2055C27.2799 46.1485 27.1289 44.9782 27.1289 43.6946C27.1289 43.0528 27.2044 42.2506 27.3554 41.2879C27.5253 40.3064 27.7613 39.2777 28.0633 38.2017C28.3653 37.1069 28.7428 36.0216 29.1958 34.9456C29.6488 33.8697 30.1585 32.8976 30.7248 32.0293C31.3099 31.161 31.9517 30.4626 32.6501 29.9341C33.3485 29.3867 34.1036 29.113 34.9152 29.113C35.8968 29.113 36.8122 29.2923 37.6617 29.6509C38.5111 30.0096 39.2378 30.5098 39.8418 31.1516C40.4459 31.7745 40.9177 32.5106 41.2575 33.3601C41.6162 34.2095 41.7955 35.125 41.7955 36.1065C41.7955 36.8804 41.5407 37.5128 41.031 38.0035C40.5214 38.4943 39.8796 38.7397 39.1057 38.7397C38.5205 38.7397 38.0581 38.6453 37.7183 38.4566C37.3974 38.2678 37.1426 38.0318 36.9538 37.7487C36.7839 37.4467 36.6518 37.1258 36.5574 36.786C36.4819 36.4463 36.4064 36.1254 36.3309 35.8234C36.2554 35.5025 36.1516 35.2288 36.0195 35.0023C35.9062 34.7569 35.7174 34.6059 35.4532 34.5492C35.1323 35.0211 34.802 35.6629 34.4622 36.4746C34.1224 37.2674 33.8015 38.1073 33.4995 38.9945C33.2164 39.8817 32.9804 40.75 32.7917 41.5994C32.6029 42.4299 32.5085 43.1283 32.5085 43.6946C32.5085 44.2231 32.5274 44.6856 32.5652 45.082C32.6029 45.4784 32.6973 45.8087 32.8483 46.073C33.0182 46.3184 33.2636 46.5071 33.5845 46.6392C33.9242 46.7525 34.3961 46.8091 35.0002 46.8091C36.3592 46.8091 37.7183 46.6204 39.0773 46.2429C39.3794 46.1674 39.7663 46.0447 40.2382 45.8748C40.7101 45.7049 41.1914 45.535 41.6822 45.3651C42.173 45.1952 42.6355 45.0442 43.0696 44.9121C43.5226 44.78 43.8624 44.7139 44.0889 44.7139C44.4664 44.7139 44.8156 44.7894 45.1365 44.9404C45.4574 45.0914 45.7311 45.2991 45.9576 45.5633C46.203 45.8087 46.3918 46.1013 46.5239 46.4411C46.656 46.7808 46.7221 47.13 46.7221 47.4887ZM59.4702 47.517C59.4702 48.0833 59.3192 48.5268 59.0171 48.8477C58.7151 49.1686 58.3187 49.4234 57.828 49.6122C57.1296 49.8765 56.4217 50.103 55.7044 50.2917C54.9871 50.4805 54.2699 50.6976 53.5526 50.943C53.0429 51.1128 52.4672 51.3299 51.8254 51.5942C51.2025 51.8396 50.5607 52.0849 49.9001 52.3303C49.2583 52.5757 48.6165 52.7834 47.9747 52.9532C47.3518 53.1231 46.7856 53.2081 46.2759 53.2081C45.7096 53.2081 45.2849 53.0287 45.0018 52.6701C44.7375 52.3303 44.5488 51.9245 44.4355 51.4526C44.3411 50.9618 44.294 50.4522 44.294 49.9237C44.294 49.3951 44.294 48.9421 44.294 48.5646C44.294 47.7152 44.2751 46.8752 44.2373 46.0447C44.2184 45.2141 44.209 44.3741 44.209 43.5247V33.898C44.209 33.3884 44.2279 32.841 44.2656 32.2558C44.3223 31.6518 44.445 31.095 44.6337 30.5853C44.8225 30.0757 45.1056 29.6509 45.4831 29.3112C45.8795 28.9525 46.4175 28.7732 47.097 28.7732C47.8521 28.7732 48.4938 29.0186 49.0224 29.5094C49.5698 30.0002 49.8435 30.6325 49.8435 31.4064C49.8435 32.5956 49.7491 33.7753 49.5603 34.9456C49.3904 36.1159 49.3055 37.2957 49.3055 38.4849C49.3055 39.8439 49.3433 41.1936 49.4188 42.5337C49.4943 43.8551 49.5603 45.1952 49.617 46.5543C50.0133 46.4222 50.5136 46.2617 51.1176 46.073C51.7405 45.8653 52.3728 45.6766 53.0146 45.5067C53.6753 45.3368 54.317 45.1952 54.94 45.082C55.5629 44.9499 56.0725 44.8838 56.4689 44.8838C56.8464 44.8838 57.2145 44.9499 57.5731 45.082C57.9318 45.1952 58.2527 45.3651 58.5358 45.5916C58.8189 45.8181 59.0455 46.0918 59.2153 46.4127C59.3852 46.7336 59.4702 47.1017 59.4702 47.517ZM79.9347 48.5363C79.9347 49.0648 79.7931 49.5273 79.5099 49.9237C79.2457 50.32 78.887 50.6409 78.434 50.8863C77.4902 51.396 76.452 51.8207 75.3195 52.1604C74.1869 52.4813 73.0261 52.7267 71.8369 52.8966C70.6477 53.0854 69.4491 53.2175 68.241 53.293C67.0519 53.3685 65.9287 53.4063 64.8717 53.4063C64.0789 53.4063 63.4277 53.1514 62.918 52.6418C62.4273 52.151 62.1819 51.5092 62.1819 50.7164C62.1819 50.018 62.3234 49.4801 62.6066 49.1026C62.9086 48.725 63.2861 48.4513 63.7391 48.2815C64.1922 48.1116 64.6924 48.0172 65.2398 47.9983C65.7872 47.9606 66.3157 47.9417 66.8253 47.9417C66.5988 46.526 66.4573 45.1103 66.4006 43.6946C66.344 42.26 66.3157 40.8255 66.3157 39.3909C66.3157 38.7869 66.3251 38.2017 66.344 37.6354C66.3818 37.0503 66.4195 36.4651 66.4573 35.88C65.8532 36.0121 65.2115 36.1726 64.5319 36.3613C63.8524 36.5501 63.2012 36.6445 62.5783 36.6445C62.2574 36.6445 61.9365 36.5973 61.6156 36.5029C61.3136 36.3896 61.0399 36.2386 60.7945 36.0499C60.5491 35.8611 60.3509 35.6346 60.1999 35.3703C60.0489 35.0872 59.9734 34.7663 59.9734 34.4077C59.9734 33.7848 60.2754 33.2374 60.8794 32.7655C61.5023 32.2747 62.2857 31.85 63.2295 31.4913C64.1922 31.1327 65.2586 30.8401 66.429 30.6136C67.5993 30.3682 68.7412 30.1795 69.8549 30.0473C70.9686 29.8963 71.9879 29.7925 72.9128 29.7359C73.8377 29.6604 74.5361 29.6226 75.008 29.6226C75.4988 29.6226 75.9707 29.6604 76.4237 29.7359C76.8768 29.7925 77.2731 29.9152 77.6129 30.104C77.9716 30.2927 78.2547 30.5664 78.4623 30.9251C78.67 31.2837 78.7738 31.7556 78.7738 32.3408C78.7738 32.907 78.6794 33.3695 78.4906 33.7281C78.3019 34.0679 78.0471 34.3322 77.7262 34.5209C77.4053 34.7097 77.0278 34.8418 76.5936 34.9173C76.1783 34.9739 75.7348 35.0023 75.2629 35.0023C74.6966 35.0023 74.1303 35.0306 73.564 35.0872C73.0166 35.1438 72.4598 35.191 71.8935 35.2288C71.818 35.8517 71.7614 36.4746 71.7236 37.0975C71.7048 37.7204 71.6953 38.3433 71.6953 38.9662C71.6953 40.3819 71.7142 41.7881 71.752 43.185C71.7897 44.5629 71.8652 45.9503 71.9785 47.3471C72.6957 47.1961 73.3847 47.0168 74.0454 46.8091C74.7249 46.5826 75.395 46.3372 76.0557 46.073C76.2633 45.9786 76.4615 45.9031 76.6502 45.8465C76.8579 45.7898 77.075 45.7615 77.3015 45.7615C77.6601 45.7615 77.9999 45.837 78.3208 45.988C78.6417 46.139 78.9248 46.3467 79.1702 46.6109C79.4156 46.8563 79.6043 47.1489 79.7365 47.4887C79.8686 47.8284 79.9347 48.1776 79.9347 48.5363ZM120.824 47.2905C120.824 47.9889 120.607 48.5457 120.173 48.961C119.758 49.3574 119.211 49.5556 118.531 49.5556C118.361 49.5556 118.229 49.5461 118.135 49.5273L106.016 48.1399C106.073 48.8572 106.167 49.5744 106.299 50.2917C106.432 50.9901 106.498 51.698 106.498 52.4153C106.498 53.1514 106.271 53.7366 105.818 54.1707C105.384 54.6049 104.799 54.8219 104.063 54.8219C103.213 54.8219 102.524 54.5671 101.996 54.0575C101.467 53.5667 101.137 52.9155 101.005 52.1038C100.91 51.4998 100.844 50.8958 100.807 50.2917C100.788 49.6877 100.759 49.0837 100.722 48.4796L100.693 47.8851C100.618 47.9228 100.561 47.9606 100.523 47.9983C99.7495 48.5646 98.8907 49.0837 97.9469 49.5556C97.0031 50.0275 96.031 50.4427 95.0306 50.8014C94.0301 51.1411 93.0203 51.4148 92.001 51.6225C90.9817 51.8112 90.0096 51.9151 89.0847 51.9339C87.8011 51.9339 86.6591 51.7641 85.6587 51.4243C84.6771 51.0845 83.856 50.5843 83.1954 49.9237C82.5536 49.263 82.0817 48.4513 81.7797 47.4887C81.4966 46.526 81.4211 45.4218 81.5532 44.1759C81.6287 43.3832 81.808 42.4582 82.0911 41.4012C82.3743 40.3441 82.7424 39.2588 83.1954 38.1451C83.6673 37.0125 84.2147 35.9083 84.8376 34.8324C85.4605 33.7376 86.1589 32.756 86.9328 31.8877C87.7256 31.0195 88.5844 30.321 89.5094 29.7925C90.4343 29.264 91.4253 28.9903 92.4823 28.9714C93.5771 28.9714 94.4832 29.2074 95.2004 29.6793C95.9177 30.1512 96.4746 30.7646 96.871 31.5197C97.2862 32.2558 97.5505 33.0864 97.6638 34.0113C97.7959 34.9173 97.8148 35.8139 97.7204 36.7011C97.626 37.4939 97.3051 38.1545 96.7577 38.6831C96.2103 39.2116 95.5119 39.4853 94.6625 39.5042C93.8508 39.5042 93.2751 39.3343 92.9353 38.9945C92.6145 38.6547 92.3974 38.23 92.2841 37.7204C92.1709 37.2107 92.1048 36.6728 92.0859 36.1065C92.0671 35.5214 91.9727 34.9928 91.8028 34.5209C91.1421 35.1061 90.5381 35.7951 89.9907 36.5878C89.4433 37.3806 88.962 38.2206 88.5467 39.1078C88.1503 39.9761 87.82 40.8632 87.5557 41.7693C87.2915 42.6753 87.1216 43.5247 87.0461 44.3175C86.9517 45.1669 87.0744 45.771 87.4141 46.1296C87.7539 46.4882 88.3674 46.6581 89.2545 46.6392C90.9345 46.6204 92.5106 46.3655 93.983 45.8748C95.4741 45.3651 96.9748 44.695 98.4849 43.8645C98.7491 43.7135 99.0039 43.5908 99.2493 43.4964C99.4947 43.402 99.7779 43.3548 100.099 43.3548H100.439C100.42 42.7508 100.401 42.1468 100.382 41.5428C100.382 40.9387 100.382 40.3347 100.382 39.7307C100.382 38.466 100.401 37.2013 100.439 35.9366C100.476 34.6719 100.552 33.4073 100.665 32.1426C100.741 31.4253 100.976 30.8307 101.373 30.3588C101.788 29.868 102.383 29.6226 103.157 29.6226C103.893 29.6226 104.44 29.7925 104.799 30.1323C105.176 30.4721 105.431 30.9062 105.563 31.4347C105.714 31.9444 105.79 32.5012 105.79 33.1052C105.79 33.6904 105.79 34.2378 105.79 34.7474C105.79 35.3137 105.78 35.8894 105.762 36.4746C105.762 37.0409 105.762 37.6071 105.762 38.1734L112.104 32.6239C112.613 32.1709 113.199 31.9444 113.859 31.9444C114.218 31.9444 114.558 32.0199 114.879 32.1709C115.218 32.3219 115.511 32.5201 115.756 32.7655C116.021 33.0109 116.228 33.3034 116.379 33.6432C116.53 33.9641 116.606 34.3039 116.606 34.6625C116.606 35.0589 116.53 35.4364 116.379 35.7951C116.247 36.1537 116.03 36.4651 115.728 36.7294L109.471 42.5337L118.248 44.4308C118.588 44.5063 118.909 44.629 119.211 44.7988C119.513 44.9687 119.786 45.1764 120.032 45.4218C120.277 45.6671 120.466 45.9503 120.598 46.2712C120.749 46.5921 120.824 46.9318 120.824 47.2905ZM149.786 31.4347C149.786 31.85 149.719 32.2558 149.587 32.6522C149.455 33.0486 149.266 33.4073 149.021 33.7281C148.795 34.0302 148.502 34.2755 148.143 34.4643C147.804 34.6531 147.407 34.7474 146.954 34.7474C146.577 34.7474 146.209 34.738 145.85 34.7191C145.491 34.7002 145.123 34.6908 144.746 34.6908C144.425 34.6908 144.113 34.7002 143.811 34.7191C143.528 34.7191 143.226 34.7286 142.905 34.7474V35.5969C142.905 38.2961 142.981 40.9765 143.132 43.638C143.302 46.2995 143.538 48.9799 143.84 51.6791C143.84 51.7357 143.84 51.7924 143.84 51.849C143.859 51.8867 143.868 51.9339 143.868 51.9906C143.868 52.4247 143.774 52.8117 143.585 53.1514C143.415 53.5101 143.179 53.8121 142.877 54.0575C142.594 54.3217 142.254 54.5199 141.858 54.6521C141.48 54.8031 141.093 54.8786 140.697 54.8786C139.98 54.8786 139.394 54.6804 138.941 54.284C138.488 53.9065 138.196 53.3591 138.064 52.6418C137.799 51.1883 137.658 49.6783 137.639 48.1116C137.639 46.5449 137.639 45.0254 137.639 43.553C137.639 42.1373 137.658 40.7217 137.696 39.306C137.733 37.8903 137.79 36.4746 137.865 35.0589C137.261 35.0966 136.667 35.1438 136.082 35.2005C135.515 35.2571 134.94 35.3609 134.354 35.5119C134.203 35.5497 134.043 35.5874 133.873 35.6252C133.722 35.6629 133.571 35.6818 133.42 35.6818C132.703 35.6818 132.099 35.4364 131.608 34.9456C131.117 34.4549 130.872 33.8508 130.872 33.1336C130.872 32.5295 131.042 32.0387 131.382 31.6612C131.721 31.2648 132.165 30.9628 132.712 30.7552C133.675 30.3965 134.704 30.0757 135.799 29.7925C136.893 29.5094 138.007 29.2734 139.14 29.0847C140.272 28.8959 141.405 28.7543 142.537 28.66C143.67 28.5656 144.746 28.5184 145.765 28.5184C146.312 28.5184 146.822 28.5467 147.294 28.6033C147.785 28.66 148.209 28.7921 148.568 28.9997C148.946 29.1885 149.238 29.4811 149.446 29.8775C149.672 30.255 149.786 30.7741 149.786 31.4347ZM164.735 41.7976C164.735 43.6285 164.367 45.2613 163.631 46.6959C162.914 48.1116 161.838 49.3668 160.403 50.4616C159.932 50.8203 159.403 51.1883 158.818 51.5659C158.252 51.9434 157.657 52.2831 157.034 52.5852C156.411 52.906 155.779 53.1609 155.137 53.3496C154.495 53.5573 153.872 53.6611 153.268 53.6611C152.268 53.6611 151.39 53.4063 150.635 52.8966C149.899 52.4058 149.286 51.7735 148.795 50.9996C148.323 50.2257 147.964 49.3763 147.719 48.4513C147.492 47.5264 147.379 46.6298 147.379 45.7615C147.379 44.5535 147.502 43.336 147.747 42.109C148.011 40.8632 148.37 39.6552 148.823 38.4849C149.295 37.2957 149.861 36.1726 150.522 35.1155C151.201 34.0396 151.966 33.0675 152.815 32.1992C153.004 31.9916 153.231 31.765 153.495 31.5197C153.778 31.2743 154.071 31.0478 154.373 30.8401C154.675 30.6136 154.986 30.4249 155.307 30.2739C155.628 30.1228 155.939 30.0473 156.241 30.0473C156.77 30.0473 157.346 30.2361 157.968 30.6136C158.61 30.9911 159.233 31.4536 159.837 32.001C160.441 32.5295 160.998 33.0958 161.508 33.6998C162.017 34.285 162.414 34.7852 162.697 35.2005C163.339 36.1254 163.839 37.173 164.198 38.3433C164.556 39.5136 164.735 40.665 164.735 41.7976ZM159.497 40.9765C159.497 40.5801 159.384 40.1554 159.158 39.7024C158.95 39.2305 158.686 38.7774 158.365 38.3433C158.044 37.8903 157.704 37.4656 157.346 37.0692C156.987 36.6728 156.666 36.3425 156.383 36.0782C155.892 36.6445 155.411 37.2957 154.939 38.0318C154.467 38.7491 154.042 39.5136 153.665 40.3253C153.306 41.1181 153.014 41.9297 152.787 42.7603C152.561 43.5908 152.447 44.3836 152.447 45.1386C152.447 45.3462 152.447 45.6105 152.447 45.9314C152.466 46.2334 152.513 46.5354 152.589 46.8374C152.664 47.1395 152.778 47.3943 152.929 47.6019C153.098 47.8096 153.334 47.9134 153.636 47.9134C153.882 47.9134 154.156 47.8662 154.458 47.7718C154.778 47.6774 155.09 47.5547 155.392 47.4037C155.713 47.2527 156.015 47.0923 156.298 46.9224C156.581 46.7525 156.817 46.5921 157.006 46.4411C157.836 45.8181 158.459 45.0065 158.875 44.0061C159.29 43.0056 159.497 41.9958 159.497 40.9765ZM195.768 49.414C195.768 49.7726 195.692 50.1124 195.541 50.4333C195.39 50.7542 195.192 51.0373 194.947 51.2827C194.701 51.5092 194.418 51.6885 194.097 51.8207C193.776 51.9528 193.437 52.0189 193.078 52.0189C192.568 52.0189 192.115 51.8773 191.719 51.5942C191.323 51.311 190.964 50.9618 190.643 50.5466C190.341 50.1313 190.058 49.6877 189.794 49.2158C189.548 48.7439 189.312 48.3192 189.086 47.9417C188.067 48.0361 186.981 48.1682 185.83 48.3381C184.697 48.508 183.631 48.6967 182.63 48.9044C182.574 49.2252 182.536 49.5084 182.517 49.7538C182.517 49.9803 182.508 50.2068 182.489 50.4333C182.489 50.6409 182.479 50.8674 182.46 51.1128C182.46 51.3393 182.432 51.613 182.375 51.9339C182.243 52.6701 181.951 53.293 181.498 53.8026C181.064 54.3123 180.441 54.5671 179.629 54.5671C178.761 54.5671 178.119 54.284 177.704 53.7177C177.288 53.1703 177.081 52.4908 177.081 51.6791C177.081 50.6221 177.156 49.4895 177.307 48.2815C177.477 47.0734 177.704 45.837 177.987 44.5723C178.27 43.2888 178.6 42.0052 178.978 40.7217C179.374 39.4192 179.799 38.1545 180.252 36.9276C180.705 35.7007 181.177 34.5304 181.668 33.4167C182.177 32.2841 182.687 31.2648 183.197 30.3588C183.442 29.9246 183.753 29.5471 184.131 29.2262C184.508 28.8865 184.971 28.7166 185.518 28.7166C185.839 28.7166 186.122 28.7827 186.368 28.9148C186.632 29.028 186.858 29.1885 187.047 29.3961C187.255 29.5849 187.425 29.8114 187.557 30.0757C187.708 30.3399 187.831 30.6042 187.925 30.8684C188.114 31.3781 188.284 31.8972 188.435 32.4257C188.604 32.9542 188.784 33.4733 188.973 33.983C189.199 34.6247 189.444 35.3043 189.709 36.0216C189.973 36.72 190.247 37.4373 190.53 38.1734C190.813 38.8907 191.096 39.5985 191.379 40.2969C191.681 40.9954 191.974 41.6466 192.257 42.2506C193.106 42.3261 193.795 42.5809 194.324 43.0151C194.852 43.4492 195.117 44.1193 195.117 45.0254C195.117 45.6671 194.947 46.224 194.607 46.6959C194.852 47.0923 195.107 47.5264 195.371 47.9983C195.636 48.4702 195.768 48.9421 195.768 49.414ZM186.368 42.7319C186.273 42.5054 186.169 42.2412 186.056 41.9392C185.943 41.6371 185.83 41.3257 185.716 41.0048C185.603 40.6839 185.49 40.3725 185.377 40.0704C185.282 39.7495 185.197 39.4758 185.122 39.2493C185.046 39.4947 184.961 39.7873 184.867 40.1271C184.773 40.448 184.669 40.7877 184.556 41.1464C184.442 41.505 184.339 41.8542 184.244 42.194C184.15 42.5149 184.065 42.798 183.989 43.0434L186.368 42.7319ZM214.013 34.1245C214.013 35.2193 213.825 36.2198 213.447 37.1258C213.089 38.0318 212.598 38.8718 211.975 39.6457C211.371 40.4008 210.682 41.0992 209.908 41.741C209.134 42.3827 208.341 42.9962 207.53 43.5814C206.737 44.1288 205.963 44.695 205.208 45.2802C204.453 45.8465 203.679 46.4033 202.886 46.9507C202.943 47.5736 203.018 48.1776 203.113 48.7628C203.226 49.3479 203.386 49.9425 203.594 50.5466C203.651 50.7164 203.698 50.8769 203.736 51.0279C203.773 51.1789 203.792 51.3488 203.792 51.5375C203.792 51.9151 203.707 52.2643 203.537 52.5852C203.386 52.9249 203.179 53.2175 202.914 53.4629C202.669 53.7271 202.367 53.9348 202.008 54.0858C201.669 54.2368 201.319 54.3123 200.961 54.3123C200.508 54.3123 200.121 54.2179 199.8 54.0292C199.479 53.8404 199.205 53.595 198.979 53.293C198.752 53.0099 198.564 52.6795 198.413 52.302C198.262 51.9245 198.148 51.547 198.073 51.1695C197.695 49.5461 197.45 47.9039 197.337 46.2429C197.223 44.5818 197.167 42.9207 197.167 41.2596C197.167 40.0516 197.195 38.8435 197.252 37.6354C197.327 36.4085 197.412 35.191 197.507 33.983C197.091 33.5111 196.884 32.9354 196.884 32.2558C196.884 31.4442 197.082 30.8118 197.478 30.3588C197.875 29.8869 198.375 29.5377 198.979 29.3112C199.583 29.0847 200.234 28.9431 200.932 28.8865C201.65 28.8298 202.32 28.8015 202.943 28.8015C203.528 28.8015 204.207 28.8204 204.981 28.8582C205.774 28.877 206.576 28.9525 207.388 29.0847C208.219 29.1979 209.03 29.3678 209.823 29.5943C210.616 29.8208 211.324 30.1323 211.947 30.5287C212.569 30.9251 213.07 31.4158 213.447 32.001C213.825 32.5861 214.013 33.294 214.013 34.1245ZM208.266 35.2005C207.379 34.8607 206.473 34.6436 205.548 34.5492C204.623 34.4549 203.688 34.4077 202.745 34.4077C202.65 35.2948 202.546 36.1726 202.433 37.0409C202.339 37.9091 202.292 38.7963 202.292 39.7024V40.5518C202.707 40.2498 203.216 39.8911 203.82 39.4758C204.443 39.0606 205.047 38.617 205.633 38.1451C206.237 37.6732 206.775 37.1919 207.246 36.7011C207.737 36.1914 208.077 35.6912 208.266 35.2005ZM232.58 48.5929C232.58 49.1592 232.42 49.6216 232.099 49.9803C231.797 50.3389 231.4 50.6315 230.91 50.858C230.117 51.2355 229.296 51.5564 228.446 51.8207C227.597 52.0849 226.747 52.3586 225.898 52.6418C225.011 52.9438 224.152 53.2741 223.321 53.6328C222.51 53.9914 221.679 54.3595 220.83 54.737C220.603 54.8314 220.367 54.9163 220.122 54.9918C219.895 55.0673 219.65 55.1051 219.386 55.1051C218.574 55.1051 217.951 54.8408 217.517 54.3123C217.102 53.7838 216.828 53.1609 216.696 52.4436C216.281 50.3484 215.969 48.2343 215.762 46.1013C215.573 43.9683 215.478 41.8353 215.478 39.7024C215.478 39.3815 215.488 38.9568 215.507 38.4282C215.526 37.8997 215.554 37.3334 215.592 36.7294C215.629 36.1065 215.696 35.4742 215.79 34.8324C215.884 34.1906 215.998 33.596 216.13 33.0486C216.262 32.4823 216.432 31.9821 216.639 31.548C216.847 31.1138 217.092 30.8024 217.376 30.6136C217.829 30.3116 218.423 30.0757 219.159 29.9058C219.895 29.717 220.66 29.5754 221.453 29.4811C222.264 29.3867 223.057 29.3301 223.831 29.3112C224.624 29.2734 225.303 29.2546 225.87 29.2546C226.417 29.2546 226.955 29.2923 227.484 29.3678C228.012 29.4244 228.484 29.5566 228.899 29.7642C229.315 29.9718 229.645 30.2833 229.89 30.6986C230.154 31.095 230.287 31.6329 230.287 32.3124C230.287 32.992 230.145 33.5016 229.862 33.8414C229.579 34.1623 229.22 34.3888 228.786 34.5209C228.371 34.6342 227.908 34.6908 227.399 34.6908C226.889 34.6719 226.398 34.6625 225.926 34.6625C225.134 34.6625 224.341 34.6814 223.548 34.7191C222.755 34.738 221.981 34.8513 221.226 35.0589C221.132 35.5685 221.056 36.0782 221 36.5878C220.962 37.0975 220.934 37.6166 220.915 38.1451C222.406 37.8242 223.907 37.5599 225.417 37.3523C226.946 37.1447 228.475 37.0409 230.003 37.0409C230.777 37.0409 231.391 37.2957 231.844 37.8053C232.297 38.315 232.523 38.9473 232.523 39.7024C232.523 40.4951 232.297 41.1275 231.844 41.5994C231.41 42.0524 230.815 42.345 230.06 42.4771C229.626 42.5526 229.201 42.6092 228.786 42.647C228.371 42.6659 227.946 42.6942 227.512 42.7319C226.398 42.8641 225.303 43.0245 224.227 43.2133C223.152 43.402 222.076 43.6474 221 43.9494C221.056 44.6856 221.122 45.4218 221.198 46.1579C221.292 46.8752 221.387 47.5925 221.481 48.3098C221.991 48.1021 222.604 47.8662 223.321 47.6019C224.039 47.3188 224.775 47.0545 225.53 46.8091C226.304 46.5637 227.049 46.3561 227.767 46.1862C228.484 46.0163 229.116 45.9314 229.664 45.9314C230.041 45.9314 230.4 45.9975 230.74 46.1296C231.098 46.2617 231.41 46.4505 231.674 46.6959C231.957 46.9224 232.174 47.1961 232.325 47.517C232.495 47.8379 232.58 48.1965 232.58 48.5929ZM264.721 48.5363C264.721 49.0648 264.58 49.5273 264.296 49.9237C264.032 50.32 263.673 50.6409 263.22 50.8863C262.277 51.396 261.239 51.8207 260.106 52.1604C258.973 52.4813 257.813 52.7267 256.623 52.8966C255.434 53.0854 254.236 53.2175 253.027 53.293C251.838 53.3685 250.715 53.4063 249.658 53.4063C248.865 53.4063 248.214 53.1514 247.704 52.6418C247.214 52.151 246.968 51.5092 246.968 50.7164C246.968 50.018 247.11 49.4801 247.393 49.1026C247.695 48.725 248.073 48.4513 248.526 48.2815C248.979 48.1116 249.479 48.0172 250.026 47.9983C250.574 47.9606 251.102 47.9417 251.612 47.9417C251.385 46.526 251.244 45.1103 251.187 43.6946C251.13 42.26 251.102 40.8255 251.102 39.3909C251.102 38.7869 251.112 38.2017 251.13 37.6354C251.168 37.0503 251.206 36.4651 251.244 35.88C250.64 36.0121 249.998 36.1726 249.318 36.3613C248.639 36.5501 247.988 36.6445 247.365 36.6445C247.044 36.6445 246.723 36.5973 246.402 36.5029C246.1 36.3896 245.826 36.2386 245.581 36.0499C245.336 35.8611 245.137 35.6346 244.986 35.3703C244.835 35.0872 244.76 34.7663 244.76 34.4077C244.76 33.7848 245.062 33.2374 245.666 32.7655C246.289 32.2747 247.072 31.85 248.016 31.4913C248.979 31.1327 250.045 30.8401 251.215 30.6136C252.386 30.3682 253.528 30.1795 254.641 30.0473C255.755 29.8963 256.774 29.7925 257.699 29.7359C258.624 29.6604 259.323 29.6226 259.795 29.6226C260.285 29.6226 260.757 29.6604 261.21 29.7359C261.663 29.7925 262.06 29.9152 262.399 30.104C262.758 30.2927 263.041 30.5664 263.249 30.9251C263.456 31.2837 263.56 31.7556 263.56 32.3408C263.56 32.907 263.466 33.3695 263.277 33.7281C263.088 34.0679 262.834 34.3322 262.513 34.5209C262.192 34.7097 261.814 34.8418 261.38 34.9173C260.965 34.9739 260.521 35.0023 260.049 35.0023C259.483 35.0023 258.917 35.0306 258.35 35.0872C257.803 35.1438 257.246 35.191 256.68 35.2288C256.604 35.8517 256.548 36.4746 256.51 37.0975C256.491 37.7204 256.482 38.3433 256.482 38.9662C256.482 40.3819 256.501 41.7881 256.538 43.185C256.576 44.5629 256.652 45.9503 256.765 47.3471C257.482 47.1961 258.171 47.0168 258.832 46.8091C259.511 46.5826 260.181 46.3372 260.842 46.073C261.05 45.9786 261.248 45.9031 261.437 45.8465C261.644 45.7898 261.861 45.7615 262.088 45.7615C262.447 45.7615 262.786 45.837 263.107 45.988C263.428 46.139 263.711 46.3467 263.957 46.6109C264.202 46.8563 264.391 47.1489 264.523 47.4887C264.655 47.8284 264.721 48.1776 264.721 48.5363ZM284.857 31.4347C284.857 31.85 284.791 32.2558 284.659 32.6522C284.527 33.0486 284.338 33.4073 284.092 33.7281C283.866 34.0302 283.573 34.2755 283.215 34.4643C282.875 34.6531 282.479 34.7474 282.026 34.7474C281.648 34.7474 281.28 34.738 280.921 34.7191C280.563 34.7002 280.195 34.6908 279.817 34.6908C279.496 34.6908 279.185 34.7002 278.883 34.7191C278.6 34.7191 278.298 34.7286 277.977 34.7474V35.5969C277.977 38.2961 278.052 40.9765 278.203 43.638C278.373 46.2995 278.609 48.9799 278.911 51.6791C278.911 51.7357 278.911 51.7924 278.911 51.849C278.93 51.8867 278.939 51.9339 278.939 51.9906C278.939 52.4247 278.845 52.8117 278.656 53.1514C278.486 53.5101 278.25 53.8121 277.948 54.0575C277.665 54.3217 277.325 54.5199 276.929 54.6521C276.551 54.8031 276.165 54.8786 275.768 54.8786C275.051 54.8786 274.466 54.6804 274.013 54.284C273.56 53.9065 273.267 53.3591 273.135 52.6418C272.871 51.1883 272.729 49.6783 272.71 48.1116C272.71 46.5449 272.71 45.0254 272.71 43.553C272.71 42.1373 272.729 40.7217 272.767 39.306C272.805 37.8903 272.861 36.4746 272.937 35.0589C272.333 35.0966 271.738 35.1438 271.153 35.2005C270.587 35.2571 270.011 35.3609 269.426 35.5119C269.275 35.5497 269.114 35.5874 268.945 35.6252C268.794 35.6629 268.643 35.6818 268.491 35.6818C267.774 35.6818 267.17 35.4364 266.679 34.9456C266.189 34.4549 265.943 33.8508 265.943 33.1336C265.943 32.5295 266.113 32.0387 266.453 31.6612C266.793 31.2648 267.236 30.9628 267.784 30.7552C268.746 30.3965 269.775 30.0757 270.87 29.7925C271.965 29.5094 273.078 29.2734 274.211 29.0847C275.343 28.8959 276.476 28.7543 277.609 28.66C278.741 28.5656 279.817 28.5184 280.836 28.5184C281.384 28.5184 281.893 28.5467 282.365 28.6033C282.856 28.66 283.281 28.7921 283.639 28.9997C284.017 29.1885 284.309 29.4811 284.517 29.8775C284.744 30.255 284.857 30.7741 284.857 31.4347Z" fill="white"></path></svg> 